<svg xmlns="http://www.w3.org/2000/svg" version="1.1" xmlns:xlink="http://www.w3.org/1999/xlink" xmlns:svgjs="http://svgjs.com/svgjs" width="17" height="17" x="0" y="0" viewBox="0 0 512 512" style="enable-background:new 0 0 512 512" xml:space="preserve"><g transform="matrix(-1,-1.2246467991473532e-16,1.2246467991473532e-16,-1,512.0000305175781,512.0000004768372)"><path d="M118.933 237.933a119 119 0 1 0-119-119 119.135 119.135 0 0 0 119 119zm0-206a87 87 0 1 1-87 87 87.1 87.1 0 0 1 87-87zM237.8 303.334a29.033 29.033 0 0 0-29-29H29.067a29.033 29.033 0 0 0-29 29v179.733a29.032 29.032 0 0 0 29 29H208.8a29.032 29.032 0 0 0 29-29zm-32 176.733H32.067V306.334H205.8zm277.267-205.733H303.335a29.033 29.033 0 0 0-29 29v179.733a29.032 29.032 0 0 0 29 29h179.732a29.032 29.032 0 0 0 29-29V303.334a29.033 29.033 0 0 0-29-29zm-3 205.733H306.335V306.334h173.732zm3-480H303.335a29.032 29.032 0 0 0-29 29V208.8a29.032 29.032 0 0 0 29 29h179.732a29.032 29.032 0 0 0 29-29V29.067a29.032 29.032 0 0 0-29-29zm-3 205.732H306.335V32.067h173.732z"></path></g></svg>